<mxfile host="app.diagrams.net" modified="2020-08-27T08:20:41.448Z" agent="5.0 (Windows NT 10.0; Win64; x64) AppleWebKit/537.36 (KHTML, like Gecko) Chrome/84.0.4147.135 Safari/537.36" etag="KI-2kDpphovIuJcugQq7" version="13.6.5" type="github">
  <diagram id="F9sWuauFsDqkvSQIgXCU" name="Page-1">
    <mxGraphModel dx="2076" dy="1096" grid="1" gridSize="10" guides="1" tooltips="1" connect="1" arrows="1" fold="1" page="1" pageScale="1" pageWidth="850" pageHeight="1100" math="0" shadow="0" extFonts="Old Standard TT^https://fonts.googleapis.com/css?family=Old+Standard+TT">
      <root>
        <mxCell id="0" />
        <mxCell id="1" parent="0" />
        <mxCell id="rxS6ARzGvscLo5JfiblR-8" value="" style="verticalAlign=top;align=left;spacingTop=8;spacingLeft=2;spacingRight=12;shape=cube;size=10;direction=south;fontStyle=4;html=1;" vertex="1" parent="1">
          <mxGeometry x="70" y="140" width="760" height="650" as="geometry" />
        </mxCell>
        <mxCell id="rxS6ARzGvscLo5JfiblR-27" value="" style="rounded=0;whiteSpace=wrap;html=1;fillColor=#FFFFFF;fontFamily=Old Standard TT;" vertex="1" parent="1">
          <mxGeometry x="90" y="220" width="520" height="470" as="geometry" />
        </mxCell>
        <mxCell id="rxS6ARzGvscLo5JfiblR-1" value="" style="verticalAlign=top;align=left;spacingTop=8;spacingLeft=2;spacingRight=12;shape=cube;size=10;direction=south;fontStyle=4;html=1;" vertex="1" parent="1">
          <mxGeometry x="130" y="279" width="182" height="221" as="geometry" />
        </mxCell>
        <mxCell id="rxS6ARzGvscLo5JfiblR-2" value="" style="verticalAlign=top;align=left;spacingTop=8;spacingLeft=2;spacingRight=12;shape=cube;size=10;direction=south;fontStyle=4;html=1;" vertex="1" parent="1">
          <mxGeometry x="400" y="279" width="190" height="191" as="geometry" />
        </mxCell>
        <mxCell id="rxS6ARzGvscLo5JfiblR-3" value="" style="verticalAlign=top;align=left;spacingTop=8;spacingLeft=2;spacingRight=12;shape=cube;size=10;direction=south;fontStyle=4;html=1;" vertex="1" parent="1">
          <mxGeometry x="400" y="542" width="190" height="120" as="geometry" />
        </mxCell>
        <mxCell id="rxS6ARzGvscLo5JfiblR-4" value="" style="verticalAlign=top;align=left;spacingTop=8;spacingLeft=2;spacingRight=12;shape=cube;size=10;direction=south;fontStyle=4;html=1;" vertex="1" parent="1">
          <mxGeometry x="630" y="280" width="180" height="50" as="geometry" />
        </mxCell>
        <mxCell id="rxS6ARzGvscLo5JfiblR-5" value="" style="verticalAlign=top;align=left;spacingTop=8;spacingLeft=2;spacingRight=12;shape=cube;size=10;direction=south;fontStyle=4;html=1;" vertex="1" parent="1">
          <mxGeometry x="630" y="342" width="180" height="50" as="geometry" />
        </mxCell>
        <mxCell id="rxS6ARzGvscLo5JfiblR-6" value="" style="verticalAlign=top;align=left;spacingTop=8;spacingLeft=2;spacingRight=12;shape=cube;size=10;direction=south;fontStyle=4;html=1;" vertex="1" parent="1">
          <mxGeometry x="630" y="405" width="180" height="50" as="geometry" />
        </mxCell>
        <mxCell id="rxS6ARzGvscLo5JfiblR-7" value="" style="verticalAlign=top;align=left;spacingTop=8;spacingLeft=2;spacingRight=12;shape=cube;size=10;direction=south;fontStyle=4;html=1;" vertex="1" parent="1">
          <mxGeometry x="630" y="572" width="180" height="50" as="geometry" />
        </mxCell>
        <mxCell id="rxS6ARzGvscLo5JfiblR-17" value="&lt;b style=&quot;font-size: 18px&quot;&gt;&lt;font face=&quot;Helvetica&quot; style=&quot;font-size: 18px&quot;&gt;&amp;lt;&amp;lt;&lt;/font&gt;&lt;font style=&quot;font-size: 18px&quot;&gt;device&lt;/font&gt;&lt;font face=&quot;Helvetica&quot; style=&quot;font-size: 18px&quot;&gt;&amp;gt;&amp;gt;&lt;/font&gt;&lt;/b&gt;" style="text;html=1;strokeColor=none;fillColor=none;align=center;verticalAlign=middle;whiteSpace=wrap;rounded=0;fontFamily=Old Standard TT;" vertex="1" parent="1">
          <mxGeometry x="363.75" y="160" width="90" height="20" as="geometry" />
        </mxCell>
        <mxCell id="rxS6ARzGvscLo5JfiblR-18" value="&lt;b&gt;&lt;font face=&quot;Helvetica&quot; style=&quot;font-size: 13px&quot;&gt;&amp;lt;&amp;lt;&lt;/font&gt;&lt;font style=&quot;font-size: 15px&quot;&gt;container&lt;/font&gt;&lt;font face=&quot;Helvetica&quot; style=&quot;font-size: 13px&quot;&gt;&amp;gt;&amp;gt;&lt;/font&gt;&lt;/b&gt;" style="text;html=1;strokeColor=none;fillColor=none;align=center;verticalAlign=middle;whiteSpace=wrap;rounded=0;fontFamily=Old Standard TT;" vertex="1" parent="1">
          <mxGeometry x="172" y="289" width="100" height="20" as="geometry" />
        </mxCell>
        <mxCell id="rxS6ARzGvscLo5JfiblR-19" value="&lt;b&gt;&lt;font face=&quot;Helvetica&quot; style=&quot;font-size: 13px&quot;&gt;&amp;lt;&amp;lt;&lt;/font&gt;&lt;font style=&quot;font-size: 15px&quot;&gt;container&lt;/font&gt;&lt;font face=&quot;Helvetica&quot; style=&quot;font-size: 13px&quot;&gt;&amp;gt;&amp;gt;&lt;/font&gt;&lt;/b&gt;" style="text;html=1;strokeColor=none;fillColor=none;align=center;verticalAlign=middle;whiteSpace=wrap;rounded=0;fontFamily=Old Standard TT;" vertex="1" parent="1">
          <mxGeometry x="440" y="289" width="100" height="20" as="geometry" />
        </mxCell>
        <mxCell id="rxS6ARzGvscLo5JfiblR-20" value="&lt;b&gt;&lt;font face=&quot;Helvetica&quot; style=&quot;font-size: 13px&quot;&gt;&amp;lt;&amp;lt;&lt;/font&gt;&lt;font style=&quot;font-size: 15px&quot;&gt;container&lt;/font&gt;&lt;font face=&quot;Helvetica&quot; style=&quot;font-size: 13px&quot;&gt;&amp;gt;&amp;gt;&lt;/font&gt;&lt;/b&gt;" style="text;html=1;strokeColor=none;fillColor=none;align=center;verticalAlign=middle;whiteSpace=wrap;rounded=0;fontFamily=Old Standard TT;" vertex="1" parent="1">
          <mxGeometry x="440" y="552" width="100" height="20" as="geometry" />
        </mxCell>
        <mxCell id="rxS6ARzGvscLo5JfiblR-21" value="&lt;b&gt;&lt;font face=&quot;Helvetica&quot; style=&quot;font-size: 13px&quot;&gt;&amp;lt;&amp;lt;&lt;/font&gt;&lt;font style=&quot;font-size: 15px&quot;&gt;volume&lt;/font&gt;&lt;font face=&quot;Helvetica&quot; style=&quot;font-size: 13px&quot;&gt;&amp;gt;&amp;gt;&lt;/font&gt;&lt;/b&gt;" style="text;html=1;strokeColor=none;fillColor=none;align=center;verticalAlign=middle;whiteSpace=wrap;rounded=0;fontFamily=Old Standard TT;" vertex="1" parent="1">
          <mxGeometry x="670" y="290" width="100" height="20" as="geometry" />
        </mxCell>
        <mxCell id="rxS6ARzGvscLo5JfiblR-23" value="&lt;b&gt;&lt;font face=&quot;Helvetica&quot; style=&quot;font-size: 13px&quot;&gt;&amp;lt;&amp;lt;&lt;/font&gt;&lt;font style=&quot;font-size: 15px&quot;&gt;volume&lt;/font&gt;&lt;font face=&quot;Helvetica&quot; style=&quot;font-size: 13px&quot;&gt;&amp;gt;&amp;gt;&lt;/font&gt;&lt;/b&gt;" style="text;html=1;strokeColor=none;fillColor=none;align=center;verticalAlign=middle;whiteSpace=wrap;rounded=0;fontFamily=Old Standard TT;" vertex="1" parent="1">
          <mxGeometry x="670" y="352" width="100" height="20" as="geometry" />
        </mxCell>
        <mxCell id="rxS6ARzGvscLo5JfiblR-24" value="&lt;b&gt;&lt;font face=&quot;Helvetica&quot; style=&quot;font-size: 13px&quot;&gt;&amp;lt;&amp;lt;&lt;/font&gt;&lt;font style=&quot;font-size: 15px&quot;&gt;volume&lt;/font&gt;&lt;font face=&quot;Helvetica&quot; style=&quot;font-size: 13px&quot;&gt;&amp;gt;&amp;gt;&lt;/font&gt;&lt;/b&gt;" style="text;html=1;strokeColor=none;fillColor=none;align=center;verticalAlign=middle;whiteSpace=wrap;rounded=0;fontFamily=Old Standard TT;" vertex="1" parent="1">
          <mxGeometry x="670" y="415" width="100" height="20" as="geometry" />
        </mxCell>
        <mxCell id="rxS6ARzGvscLo5JfiblR-25" value="&lt;b&gt;&lt;font face=&quot;Helvetica&quot; style=&quot;font-size: 13px&quot;&gt;&amp;lt;&amp;lt;&lt;/font&gt;&lt;font style=&quot;font-size: 15px&quot;&gt;volume&lt;/font&gt;&lt;font face=&quot;Helvetica&quot; style=&quot;font-size: 13px&quot;&gt;&amp;gt;&amp;gt;&lt;/font&gt;&lt;/b&gt;" style="text;html=1;strokeColor=none;fillColor=none;align=center;verticalAlign=middle;whiteSpace=wrap;rounded=0;fontFamily=Old Standard TT;" vertex="1" parent="1">
          <mxGeometry x="670" y="582" width="100" height="20" as="geometry" />
        </mxCell>
        <mxCell id="rxS6ARzGvscLo5JfiblR-28" value="&lt;b&gt;&lt;font face=&quot;Helvetica&quot;&gt;&amp;lt;&amp;lt;&lt;/font&gt;&lt;span style=&quot;font-size: 15px&quot;&gt;network&lt;/span&gt;&lt;font face=&quot;Helvetica&quot;&gt;&amp;gt;&amp;gt;&lt;/font&gt;&lt;/b&gt;" style="text;html=1;strokeColor=none;fillColor=none;align=center;verticalAlign=middle;whiteSpace=wrap;rounded=0;fontFamily=Old Standard TT;" vertex="1" parent="1">
          <mxGeometry x="315" y="220" width="90" height="20" as="geometry" />
        </mxCell>
        <mxCell id="rxS6ARzGvscLo5JfiblR-32" value="Reverse Proxy" style="html=1;verticalAlign=bottom;endArrow=none;fontFamily=Old Standard TT;startArrow=none;startFill=0;endFill=0;endSize=4;startSize=4;entryX=0;entryY=0.5;entryDx=0;entryDy=0;labelBackgroundColor=none;" edge="1" parent="1" target="rxS6ARzGvscLo5JfiblR-38">
          <mxGeometry width="80" relative="1" as="geometry">
            <mxPoint x="312" y="339" as="sourcePoint" />
            <mxPoint x="380" y="338" as="targetPoint" />
          </mxGeometry>
        </mxCell>
        <mxCell id="rxS6ARzGvscLo5JfiblR-33" value="SQL" style="html=1;verticalAlign=bottom;endArrow=none;fontFamily=Old Standard TT;startArrow=none;startFill=0;endFill=0;endSize=4;startSize=4;entryX=1;entryY=0.5;entryDx=0;entryDy=0;exitX=0;exitY=0;exitDx=191;exitDy=100;exitPerimeter=0;" edge="1" parent="1" source="rxS6ARzGvscLo5JfiblR-2" target="rxS6ARzGvscLo5JfiblR-40">
          <mxGeometry x="0.3421" width="80" relative="1" as="geometry">
            <mxPoint x="490" y="470" as="sourcePoint" />
            <mxPoint x="490" y="470" as="targetPoint" />
            <mxPoint as="offset" />
          </mxGeometry>
        </mxCell>
        <mxCell id="rxS6ARzGvscLo5JfiblR-34" value="" style="endArrow=none;html=1;fontFamily=Old Standard TT;entryX=0;entryY=0;entryDx=30;entryDy=180;entryPerimeter=0;" edge="1" parent="1" source="rxS6ARzGvscLo5JfiblR-2" target="rxS6ARzGvscLo5JfiblR-5">
          <mxGeometry width="50" height="50" relative="1" as="geometry">
            <mxPoint x="545" y="470" as="sourcePoint" />
            <mxPoint x="595" y="420" as="targetPoint" />
          </mxGeometry>
        </mxCell>
        <mxCell id="rxS6ARzGvscLo5JfiblR-35" value="" style="endArrow=none;html=1;fontFamily=Old Standard TT;entryX=0;entryY=0;entryDx=30;entryDy=180;entryPerimeter=0;" edge="1" parent="1" source="rxS6ARzGvscLo5JfiblR-2" target="rxS6ARzGvscLo5JfiblR-6">
          <mxGeometry width="50" height="50" relative="1" as="geometry">
            <mxPoint x="590" y="352.2142857142857" as="sourcePoint" />
            <mxPoint x="640" y="354" as="targetPoint" />
          </mxGeometry>
        </mxCell>
        <mxCell id="rxS6ARzGvscLo5JfiblR-36" value="" style="endArrow=none;html=1;fontFamily=Old Standard TT;entryX=0;entryY=0;entryDx=30;entryDy=180;entryPerimeter=0;" edge="1" parent="1" source="rxS6ARzGvscLo5JfiblR-2" target="rxS6ARzGvscLo5JfiblR-4">
          <mxGeometry width="50" height="50" relative="1" as="geometry">
            <mxPoint x="545" y="239.99571428571434" as="sourcePoint" />
            <mxPoint x="595.0000000000002" y="263.21000000000004" as="targetPoint" />
          </mxGeometry>
        </mxCell>
        <mxCell id="rxS6ARzGvscLo5JfiblR-37" value="" style="endArrow=none;html=1;fontFamily=Old Standard TT;entryX=0;entryY=0;entryDx=30;entryDy=180;entryPerimeter=0;" edge="1" parent="1" source="rxS6ARzGvscLo5JfiblR-3" target="rxS6ARzGvscLo5JfiblR-7">
          <mxGeometry width="50" height="50" relative="1" as="geometry">
            <mxPoint x="630" y="518.7857142857143" as="sourcePoint" />
            <mxPoint x="680.0000000000002" y="542" as="targetPoint" />
          </mxGeometry>
        </mxCell>
        <mxCell id="rxS6ARzGvscLo5JfiblR-38" value="" style="rounded=0;whiteSpace=wrap;html=1;fillColor=#FFFFFF;fontFamily=Old Standard TT;" vertex="1" parent="1">
          <mxGeometry x="390" y="329" width="10" height="20" as="geometry" />
        </mxCell>
        <mxCell id="rxS6ARzGvscLo5JfiblR-39" value="&lt;font style=&quot;font-size: 10px&quot;&gt;Port 8000&lt;/font&gt;" style="text;html=1;strokeColor=none;fillColor=none;align=center;verticalAlign=middle;whiteSpace=wrap;rounded=0;fontFamily=Old Standard TT;" vertex="1" parent="1">
          <mxGeometry x="352" y="349" width="48" height="13.5" as="geometry" />
        </mxCell>
        <mxCell id="rxS6ARzGvscLo5JfiblR-40" value="" style="rounded=0;whiteSpace=wrap;html=1;fillColor=#FFFFFF;fontFamily=Old Standard TT;rotation=-90;" vertex="1" parent="1">
          <mxGeometry x="485" y="527" width="10" height="20" as="geometry" />
        </mxCell>
        <mxCell id="rxS6ARzGvscLo5JfiblR-41" value="Port 5432" style="text;html=1;strokeColor=none;fillColor=none;align=center;verticalAlign=middle;whiteSpace=wrap;rounded=0;fontFamily=Old Standard TT;" vertex="1" parent="1">
          <mxGeometry x="418" y="524" width="60" height="20" as="geometry" />
        </mxCell>
        <mxCell id="rxS6ARzGvscLo5JfiblR-42" value="&lt;span style=&quot;font-size: 14px&quot;&gt;:python3.7 image&lt;/span&gt;" style="text;html=1;strokeColor=none;fillColor=none;align=center;verticalAlign=middle;whiteSpace=wrap;rounded=0;fontFamily=Old Standard TT;" vertex="1" parent="1">
          <mxGeometry x="430" y="304" width="120" height="20" as="geometry" />
        </mxCell>
        <mxCell id="rxS6ARzGvscLo5JfiblR-43" value="&lt;font style=&quot;font-size: 14px&quot;&gt;:tutum/nginx image&lt;/font&gt;" style="text;html=1;strokeColor=none;fillColor=none;align=center;verticalAlign=middle;whiteSpace=wrap;rounded=0;fontFamily=Old Standard TT;" vertex="1" parent="1">
          <mxGeometry x="158.5" y="304" width="127" height="20" as="geometry" />
        </mxCell>
        <mxCell id="rxS6ARzGvscLo5JfiblR-44" value="&lt;font style=&quot;font-size: 14px&quot;&gt;:postgres:11 image&lt;/font&gt;" style="text;html=1;strokeColor=none;fillColor=none;align=center;verticalAlign=middle;whiteSpace=wrap;rounded=0;fontFamily=Old Standard TT;" vertex="1" parent="1">
          <mxGeometry x="426" y="567" width="130" height="17" as="geometry" />
        </mxCell>
        <mxCell id="rxS6ARzGvscLo5JfiblR-45" value="&lt;font style=&quot;font-size: 14px&quot;&gt;app_network&lt;br&gt;10.0.0.0/24&lt;br&gt;&lt;/font&gt;" style="text;html=1;strokeColor=none;fillColor=none;align=center;verticalAlign=middle;whiteSpace=wrap;rounded=0;fontFamily=Old Standard TT;" vertex="1" parent="1">
          <mxGeometry x="307.5" y="244" width="105" height="20" as="geometry" />
        </mxCell>
        <mxCell id="rxS6ARzGvscLo5JfiblR-46" value="&lt;font style=&quot;font-size: 14px&quot;&gt;Docker Host - RedHat VM&lt;/font&gt;" style="text;html=1;strokeColor=none;fillColor=none;align=center;verticalAlign=middle;whiteSpace=wrap;rounded=0;fontFamily=Old Standard TT;" vertex="1" parent="1">
          <mxGeometry x="322.5" y="180" width="172.5" height="20" as="geometry" />
        </mxCell>
        <mxCell id="rxS6ARzGvscLo5JfiblR-47" value="" style="rounded=0;whiteSpace=wrap;html=1;fillColor=#FFFFFF;fontFamily=Old Standard TT;" vertex="1" parent="1">
          <mxGeometry x="120" y="329" width="10" height="20" as="geometry" />
        </mxCell>
        <mxCell id="rxS6ARzGvscLo5JfiblR-48" value="&lt;font style=&quot;font-size: 10px&quot;&gt;Port 80&lt;/font&gt;" style="text;html=1;strokeColor=none;fillColor=none;align=center;verticalAlign=middle;whiteSpace=wrap;rounded=0;fontFamily=Old Standard TT;" vertex="1" parent="1">
          <mxGeometry x="90" y="349" width="40" height="13.5" as="geometry" />
        </mxCell>
        <mxCell id="rxS6ARzGvscLo5JfiblR-49" value="&lt;div style=&quot;font-size: 14px ; line-height: 19px&quot;&gt;&lt;span style=&quot;background-color: rgb(255 , 255 , 255)&quot;&gt;/var/lib/postgresql/data&lt;/span&gt;&lt;/div&gt;" style="text;html=1;strokeColor=none;fillColor=none;align=center;verticalAlign=middle;whiteSpace=wrap;rounded=0;fontFamily=Old Standard TT;" vertex="1" parent="1">
          <mxGeometry x="640" y="602" width="160" height="20" as="geometry" />
        </mxCell>
        <mxCell id="rxS6ARzGvscLo5JfiblR-50" value="&lt;div style=&quot;font-size: 14px ; line-height: 19px&quot;&gt;&lt;span style=&quot;background-color: rgb(255 , 255 , 255)&quot;&gt;/var/log/cronlogs&lt;/span&gt;&lt;/div&gt;" style="text;html=1;strokeColor=none;fillColor=none;align=center;verticalAlign=middle;whiteSpace=wrap;rounded=0;fontFamily=Old Standard TT;" vertex="1" parent="1">
          <mxGeometry x="640" y="435" width="160" height="20" as="geometry" />
        </mxCell>
        <mxCell id="rxS6ARzGvscLo5JfiblR-51" value="&lt;div style=&quot;font-size: 14px ; line-height: 19px&quot;&gt;&lt;span style=&quot;background-color: rgb(255 , 255 , 255)&quot;&gt;/var/spool/cron/crontabs&lt;/span&gt;&lt;/div&gt;" style="text;html=1;strokeColor=none;fillColor=none;align=center;verticalAlign=middle;whiteSpace=wrap;rounded=0;fontFamily=Old Standard TT;" vertex="1" parent="1">
          <mxGeometry x="640" y="372" width="160" height="20" as="geometry" />
        </mxCell>
        <mxCell id="rxS6ARzGvscLo5JfiblR-52" value="&lt;div style=&quot;font-size: 14px ; line-height: 19px&quot;&gt;&lt;span style=&quot;background-color: rgb(255 , 255 , 255)&quot;&gt;/usr/local/bin&lt;/span&gt;&lt;/div&gt;" style="text;html=1;strokeColor=none;fillColor=none;align=center;verticalAlign=middle;whiteSpace=wrap;rounded=0;fontFamily=Old Standard TT;" vertex="1" parent="1">
          <mxGeometry x="640" y="310" width="160" height="20" as="geometry" />
        </mxCell>
        <mxCell id="rxS6ARzGvscLo5JfiblR-53" value="" style="rounded=0;whiteSpace=wrap;html=1;fillColor=#FFFFFF;fontFamily=Old Standard TT;" vertex="1" parent="1">
          <mxGeometry x="60" y="329" width="10" height="20" as="geometry" />
        </mxCell>
        <mxCell id="rxS6ARzGvscLo5JfiblR-55" value="" style="endArrow=none;html=1;labelBackgroundColor=none;fontFamily=Old Standard TT;entryX=0;entryY=0.5;entryDx=0;entryDy=0;exitX=1;exitY=0.5;exitDx=0;exitDy=0;" edge="1" parent="1" source="rxS6ARzGvscLo5JfiblR-53" target="rxS6ARzGvscLo5JfiblR-47">
          <mxGeometry width="50" height="50" relative="1" as="geometry">
            <mxPoint x="-120" y="410" as="sourcePoint" />
            <mxPoint x="-70" y="360" as="targetPoint" />
          </mxGeometry>
        </mxCell>
        <mxCell id="rxS6ARzGvscLo5JfiblR-57" value="&lt;font style=&quot;font-size: 10px&quot;&gt;Port 80&lt;/font&gt;" style="text;html=1;strokeColor=none;fillColor=none;align=center;verticalAlign=middle;whiteSpace=wrap;rounded=0;fontFamily=Old Standard TT;" vertex="1" parent="1">
          <mxGeometry x="28" y="349" width="42" height="16" as="geometry" />
        </mxCell>
        <mxCell id="rxS6ARzGvscLo5JfiblR-58" value="HTTP" style="html=1;verticalAlign=bottom;endArrow=none;fontFamily=Old Standard TT;startArrow=none;startFill=0;endFill=0;endSize=4;startSize=4;entryX=0;entryY=0.5;entryDx=0;entryDy=0;labelBackgroundColor=none;labelPosition=center;verticalLabelPosition=top;align=center;textDirection=rtl;horizontal=1;" edge="1" parent="1" target="rxS6ARzGvscLo5JfiblR-53">
          <mxGeometry width="80" relative="1" as="geometry">
            <mxPoint y="339" as="sourcePoint" />
            <mxPoint x="50" y="339.30999999999995" as="targetPoint" />
            <Array as="points" />
          </mxGeometry>
        </mxCell>
        <mxCell id="rxS6ARzGvscLo5JfiblR-59" value="&lt;font face=&quot;Helvetica&quot; style=&quot;font-weight: bold ; font-size: 13px&quot;&gt;&amp;lt;&amp;lt;&lt;/font&gt;&lt;font style=&quot;font-weight: bold ; font-size: 15px&quot;&gt;artifact&lt;/font&gt;&lt;font&gt;&lt;font face=&quot;Helvetica&quot; style=&quot;font-weight: bold ; font-size: 13px&quot;&gt;&amp;gt;&amp;gt;&lt;/font&gt;&lt;br&gt;&lt;font style=&quot;font-size: 17px&quot;&gt;docker-compose.yml&lt;/font&gt;&lt;br&gt;&lt;/font&gt;" style="html=1;outlineConnect=0;whiteSpace=wrap;shape=mxgraph.archimate3.application;appType=artifact;archiType=square;fontFamily=Old Standard TT;fillColor=#FFFFFF;" vertex="1" parent="1">
          <mxGeometry x="90" y="710" width="720" height="55" as="geometry" />
        </mxCell>
        <mxCell id="rxS6ARzGvscLo5JfiblR-62" value="&lt;font face=&quot;Helvetica&quot; style=&quot;font-weight: bold ; font-size: 13px&quot;&gt;&amp;lt;&amp;lt;&lt;/font&gt;&lt;font style=&quot;font-weight: bold ; font-size: 15px&quot;&gt;static content&lt;/font&gt;&lt;font&gt;&lt;font face=&quot;Helvetica&quot; style=&quot;font-weight: bold ; font-size: 13px&quot;&gt;&amp;gt;&amp;gt;&lt;/font&gt;&lt;br&gt;&lt;span style=&quot;font-size: 15px&quot;&gt;Angular files&lt;/span&gt;&lt;br&gt;&lt;/font&gt;" style="html=1;outlineConnect=0;whiteSpace=wrap;shape=mxgraph.archimate3.application;appType=artifact;archiType=square;fontFamily=Old Standard TT;fillColor=#FFFFFF;" vertex="1" parent="1">
          <mxGeometry x="151" y="415.5" width="140" height="74.5" as="geometry" />
        </mxCell>
        <mxCell id="rxS6ARzGvscLo5JfiblR-63" value="" style="verticalAlign=top;align=left;spacingTop=8;spacingLeft=2;spacingRight=12;shape=cube;size=10;direction=south;fontStyle=4;html=1;fillColor=#FFFFFF;fontFamily=Old Standard TT;fontColor=none;" vertex="1" parent="1">
          <mxGeometry x="145" y="333" width="152" height="67" as="geometry" />
        </mxCell>
        <mxCell id="rxS6ARzGvscLo5JfiblR-65" value="&lt;font face=&quot;Helvetica&quot; style=&quot;font-weight: bold ; font-size: 13px&quot;&gt;&amp;lt;&amp;lt;&lt;/font&gt;&lt;font face=&quot;Old Standard TT&quot;&gt;&lt;font style=&quot;font-weight: bold ; font-size: 15px&quot;&gt;web&lt;/font&gt;&lt;/font&gt;&lt;font style=&quot;font-weight: bold ; font-size: 15px&quot; face=&quot;old standard tt&quot;&gt; server&lt;/font&gt;&lt;font style=&quot;font-family: &amp;#34;old standard tt&amp;#34;&quot;&gt;&lt;font face=&quot;Helvetica&quot; style=&quot;font-weight: bold ; font-size: 13px&quot;&gt;&amp;gt;&amp;gt;&lt;/font&gt;&lt;br&gt;&lt;span style=&quot;font-size: 15px&quot;&gt;Nginx HTTP server&lt;/span&gt;&lt;/font&gt;" style="text;html=1;strokeColor=none;fillColor=none;align=center;verticalAlign=middle;whiteSpace=wrap;rounded=0;fontFamily=Helvetica;fontColor=none;" vertex="1" parent="1">
          <mxGeometry x="145.5" y="344" width="140" height="40.5" as="geometry" />
        </mxCell>
        <mxCell id="rxS6ARzGvscLo5JfiblR-69" value="" style="verticalAlign=top;align=left;spacingTop=8;spacingLeft=2;spacingRight=12;shape=cube;size=10;direction=south;fontStyle=4;html=1;fillColor=#FFFFFF;fontFamily=Old Standard TT;fontColor=none;" vertex="1" parent="1">
          <mxGeometry x="414" y="591" width="152" height="61" as="geometry" />
        </mxCell>
        <mxCell id="rxS6ARzGvscLo5JfiblR-70" value="&lt;font face=&quot;Helvetica&quot; style=&quot;font-weight: bold ; font-size: 13px&quot;&gt;&amp;lt;&amp;lt;&lt;/font&gt;&lt;font style=&quot;font-weight: bold ; font-size: 15px&quot; face=&quot;Old Standard TT&quot;&gt;database server&lt;/font&gt;&lt;font style=&quot;font-family: &amp;#34;old standard tt&amp;#34;&quot;&gt;&lt;font face=&quot;Helvetica&quot; style=&quot;font-weight: bold ; font-size: 13px&quot;&gt;&amp;gt;&amp;gt;&lt;/font&gt;&lt;br&gt;&lt;span style=&quot;font-size: 15px&quot;&gt;PostgreSQL 11&lt;/span&gt;&lt;br&gt;&lt;/font&gt;" style="text;html=1;strokeColor=none;fillColor=none;align=center;verticalAlign=middle;whiteSpace=wrap;rounded=0;fontFamily=Helvetica;fontColor=none;" vertex="1" parent="1">
          <mxGeometry x="416" y="602" width="140" height="40" as="geometry" />
        </mxCell>
        <mxCell id="rxS6ARzGvscLo5JfiblR-71" value="" style="verticalAlign=top;align=left;spacingTop=8;spacingLeft=2;spacingRight=12;shape=cube;size=10;direction=south;fontStyle=4;html=1;fillColor=#FFFFFF;fontFamily=Old Standard TT;fontColor=none;" vertex="1" parent="1">
          <mxGeometry x="416" y="329" width="152" height="61" as="geometry" />
        </mxCell>
        <mxCell id="rxS6ARzGvscLo5JfiblR-72" value="&lt;font style=&quot;font-size: 14px&quot;&gt;&lt;font face=&quot;Helvetica&quot; style=&quot;font-weight: bold ; font-size: 14px&quot;&gt;&amp;lt;&amp;lt;&lt;/font&gt;&lt;font style=&quot;font-weight: bold ; font-size: 14px&quot; face=&quot;Old Standard TT&quot;&gt;application server&lt;/font&gt;&lt;/font&gt;&lt;font style=&quot;font-family: &amp;#34;old standard tt&amp;#34;&quot;&gt;&lt;font face=&quot;Helvetica&quot; style=&quot;font-size: 14px ; font-weight: bold&quot;&gt;&amp;gt;&amp;gt;&lt;/font&gt;&lt;br&gt;&lt;span style=&quot;font-size: 15px&quot;&gt;Gunicorn WSGI&lt;/span&gt;&lt;br&gt;&lt;/font&gt;" style="text;html=1;strokeColor=none;fillColor=none;align=center;verticalAlign=middle;whiteSpace=wrap;rounded=0;fontFamily=Helvetica;fontColor=none;" vertex="1" parent="1">
          <mxGeometry x="414" y="338.5" width="148" height="40.5" as="geometry" />
        </mxCell>
        <mxCell id="rxS6ARzGvscLo5JfiblR-73" value="" style="verticalAlign=top;align=left;spacingTop=8;spacingLeft=2;spacingRight=12;shape=cube;size=10;direction=south;fontStyle=4;html=1;fillColor=#FFFFFF;fontFamily=Old Standard TT;fontColor=none;" vertex="1" parent="1">
          <mxGeometry x="417" y="400" width="152" height="61" as="geometry" />
        </mxCell>
        <mxCell id="rxS6ARzGvscLo5JfiblR-74" value="&lt;font style=&quot;font-size: 14px&quot;&gt;&lt;font face=&quot;Helvetica&quot; style=&quot;font-weight: bold ; font-size: 14px&quot;&gt;&amp;lt;&amp;lt;&lt;/font&gt;&lt;font style=&quot;font-weight: bold ; font-size: 14px&quot; face=&quot;Old Standard TT&quot;&gt;web application&lt;/font&gt;&lt;/font&gt;&lt;font style=&quot;font-family: &amp;#34;old standard tt&amp;#34;&quot;&gt;&lt;font face=&quot;Helvetica&quot; style=&quot;font-size: 14px ; font-weight: bold&quot;&gt;&amp;gt;&amp;gt;&lt;/font&gt;&lt;br&gt;&lt;span style=&quot;font-size: 15px&quot;&gt;Flask Application&lt;/span&gt;&lt;br&gt;&lt;/font&gt;" style="text;html=1;strokeColor=none;fillColor=none;align=center;verticalAlign=middle;whiteSpace=wrap;rounded=0;fontFamily=Helvetica;fontColor=none;" vertex="1" parent="1">
          <mxGeometry x="415" y="409.5" width="148" height="40.5" as="geometry" />
        </mxCell>
      </root>
    </mxGraphModel>
  </diagram>
</mxfile>
